ply
format ascii 1.0
comment Created by Blender 2.69 (sub 0) - www.blender.org, source file: 'hole1.blend'
element vertex 68
property float x
property float y
property float z
property float nx
property float ny
property float nz
element face 17
property list uchar uint vertex_indices
end_header
-0.606259 1.415974 0.546187 -0.378987 0.000000 0.925402
-0.606259 -0.981271 0.546187 -0.378987 0.000000 0.925402
-0.083627 -0.458639 0.760224 -0.378987 0.000000 0.925402
-0.083627 0.893343 0.760224 -0.378987 0.000000 0.925402
-0.083627 0.893343 0.760224 0.000000 0.378987 0.925402
1.268355 0.893343 0.760224 0.000000 0.378987 0.925402
1.790987 1.415974 0.546187 0.000000 0.378987 0.925402
-0.606259 1.415974 0.546187 0.000000 0.378987 0.925402
1.268355 0.893343 0.760224 0.378987 0.000000 0.925402
1.268355 -0.458639 0.760224 0.378987 0.000000 0.925402
1.790987 -0.981271 0.546187 0.378987 0.000000 0.925402
1.790987 1.415974 0.546187 0.378987 0.000000 0.925402
-0.606259 -0.981271 0.546187 0.000000 -0.378987 0.925402
1.790987 -0.981271 0.546187 0.000000 -0.378987 0.925402
1.268355 -0.458639 0.760224 0.000000 -0.378987 0.925402
-0.083627 -0.458639 0.760224 0.000000 -0.378987 0.925402
-0.083627 -0.458639 0.760224 0.000000 -0.652670 0.757643
1.268355 -0.458639 0.760224 0.000000 -0.652670 0.757643
1.174803 -0.365087 0.840814 0.000000 -0.652670 0.757643
0.009925 -0.365087 0.840814 0.000000 -0.652670 0.757643
0.009925 -0.365087 0.840814 0.000000 0.782841 0.622222
1.174803 -0.365087 0.840814 0.000000 0.782841 0.622222
1.077545 -0.267830 0.718451 0.000000 0.782841 0.622222
0.107182 -0.267830 0.718451 0.000000 0.782841 0.622222
1.268355 -0.458639 0.760224 0.652670 0.000000 0.757643
1.268355 0.893343 0.760224 0.652670 0.000000 0.757643
1.174803 0.799791 0.840814 0.652670 0.000000 0.757643
1.174803 -0.365087 0.840814 0.652670 0.000000 0.757643
1.268355 0.893343 0.760224 0.000000 0.652670 0.757643
-0.083627 0.893343 0.760224 0.000000 0.652670 0.757643
0.009925 0.799791 0.840814 0.000000 0.652670 0.757643
1.174803 0.799791 0.840814 0.000000 0.652670 0.757643
-0.083627 0.893343 0.760224 -0.652670 0.000000 0.757643
-0.083627 -0.458639 0.760224 -0.652670 0.000000 0.757643
0.009925 -0.365087 0.840814 -0.652670 0.000000 0.757643
0.009925 0.799791 0.840814 -0.652670 0.000000 0.757643
0.107182 -0.267830 0.718451 0.000000 1.000000 -0.000000
1.077545 -0.267830 0.718451 0.000000 1.000000 -0.000000
1.077545 -0.267830 -3.929759 0.000000 1.000000 -0.000000
0.107182 -0.267830 -3.929759 0.000000 1.000000 -0.000000
1.174803 -0.365087 0.840814 -0.782841 0.000000 0.622222
1.174803 0.799791 0.840814 -0.782841 0.000000 0.622222
1.077545 0.702533 0.718451 -0.782841 0.000000 0.622222
1.077545 -0.267830 0.718451 -0.782841 0.000000 0.622222
1.174803 0.799791 0.840814 0.000000 -0.782841 0.622222
0.009925 0.799791 0.840814 0.000000 -0.782841 0.622222
0.107182 0.702533 0.718451 0.000000 -0.782841 0.622222
1.077545 0.702533 0.718451 0.000000 -0.782841 0.622222
0.009925 0.799791 0.840814 0.782841 0.000000 0.622222
0.009925 -0.365087 0.840814 0.782841 0.000000 0.622222
0.107182 -0.267830 0.718451 0.782841 0.000000 0.622222
0.107182 0.702533 0.718451 0.782841 0.000000 0.622222
1.077545 -0.267830 -3.929759 -0.000000 0.000000 1.000000
1.077545 0.702533 -3.929759 -0.000000 0.000000 1.000000
0.107182 0.702533 -3.929759 -0.000000 0.000000 1.000000
0.107182 -0.267830 -3.929759 -0.000000 0.000000 1.000000
1.077545 -0.267830 0.718451 -1.000000 0.000000 0.000000
1.077545 0.702533 0.718451 -1.000000 0.000000 0.000000
1.077545 0.702533 -3.929759 -1.000000 0.000000 0.000000
1.077545 -0.267830 -3.929759 -1.000000 0.000000 0.000000
1.077545 0.702533 0.718451 0.000000 -1.000000 0.000000
0.107182 0.702533 0.718451 0.000000 -1.000000 0.000000
0.107182 0.702533 -3.929759 0.000000 -1.000000 0.000000
1.077545 0.702533 -3.929759 0.000000 -1.000000 0.000000
0.107182 0.702533 0.718451 1.000000 0.000000 -0.000000
0.107182 -0.267830 0.718451 1.000000 0.000000 -0.000000
0.107182 -0.267830 -3.929759 1.000000 0.000000 -0.000000
0.107182 0.702533 -3.929759 1.000000 0.000000 -0.000000
4 0 1 2 3
4 4 5 6 7
4 8 9 10 11
4 12 13 14 15
4 16 17 18 19
4 20 21 22 23
4 24 25 26 27
4 28 29 30 31
4 32 33 34 35
4 36 37 38 39
4 40 41 42 43
4 44 45 46 47
4 48 49 50 51
4 52 53 54 55
4 56 57 58 59
4 60 61 62 63
4 64 65 66 67
